<svg width="36" height="36" viewBox="0 0 36 36" fill="none" xmlns="http://www.w3.org/2000/svg">
<rect x="1.71435" y="1.71436" width="32.5714" height="32.5714" rx="4" fill="#2878B7"/>
<path d="M29.1429 20.1346V27.4284H24.715V20.5794C24.715 18.8893 24.0692 17.733 22.501 17.733C21.3018 17.733 20.5638 18.5336 20.2871 19.2451C20.1948 19.512 20.1026 19.8678 20.1026 20.3125V27.4284H15.6746C15.6746 27.4284 15.7669 15.8651 15.6746 14.7088H20.1026V16.4877C20.656 15.5982 21.763 14.353 24.0692 14.353C26.9289 14.353 29.1429 16.2209 29.1429 20.1346ZM11.0622 8.57129C9.58622 8.57129 8.57149 9.54973 8.57149 10.795C8.57149 12.0403 9.49397 13.0187 10.9699 13.0187C12.5382 13.0187 13.4607 12.0403 13.4607 10.795C13.5529 9.46078 12.6304 8.57129 11.0622 8.57129ZM8.84823 27.4284H13.2762V14.7088H8.84823V27.4284Z" fill="white"/>
</svg>
