<svg width="36" height="36" viewBox="0 0 36 36" fill="none" xmlns="http://www.w3.org/2000/svg">
<path d="M34.2857 32.2501C34.2857 33.3738 33.3737 34.2858 32.25 34.2858H3.74999C2.62628 34.2858 1.71428 33.3738 1.71428 32.2501V3.75007C1.71428 2.62636 2.62628 1.71436 3.74999 1.71436H32.25C33.3737 1.71436 34.2857 2.62636 34.2857 3.75007V32.2501Z" fill="#3B5998"/>
<path d="M24.1071 34.2859V22.0716H28.1786L29.1964 16.9823H24.1071V14.9466C24.1071 12.9109 25.127 11.893 27.1607 11.893H29.1964V6.80371C28.1786 6.80371 26.9164 6.80371 25.125 6.80371C21.3844 6.80371 19.0179 9.73616 19.0179 13.9287V16.9823H14.9464V22.0716H19.0179V34.2859H24.1071Z" fill="white"/>
</svg>
