<svg width="36" height="36" viewBox="0 0 36 36" fill="none" xmlns="http://www.w3.org/2000/svg">
<path fill-rule="evenodd" clip-rule="evenodd" d="M18 0.856934C13.3444 0.856934 12.7604 0.876754 10.932 0.960058C9.10741 1.04336 7.86107 1.33318 6.77089 1.75693C5.64348 2.19488 4.6875 2.78122 3.73446 3.73425C2.78142 4.68729 2.19509 5.64327 1.75714 6.77068C1.33339 7.86113 1.04357 9.1072 0.960265 10.9318C0.876961 12.7602 0.85714 13.3442 0.85714 17.9998C0.85714 22.6554 0.876961 23.2393 0.960265 25.0677C1.04357 26.8924 1.33339 28.1385 1.75714 29.2289C2.19509 30.3563 2.78142 31.3123 3.73446 32.2653C4.6875 33.2184 5.64348 33.8044 6.77089 34.2426C7.86134 34.6664 9.10741 34.9562 10.932 35.0395C12.7604 35.1228 13.3444 35.1426 18 35.1426C22.6556 35.1426 23.2395 35.1228 25.0679 35.0395C26.8926 34.9562 28.1387 34.6664 29.2291 34.2426C30.3565 33.8044 31.3125 33.2184 32.2655 32.2653C33.2186 31.3123 33.8046 30.3563 34.2429 29.2289C34.6666 28.1385 34.9564 26.8924 35.0397 25.0677C35.123 23.2393 35.1429 22.6554 35.1429 17.9998C35.1429 13.3442 35.123 12.7602 35.0397 10.9318C34.9564 9.1072 34.6666 7.86113 34.2429 6.77068C33.8046 5.64327 33.2186 4.68729 32.2655 3.73425C31.3125 2.78122 30.3565 2.19515 29.2291 1.75693C28.1387 1.33318 26.8926 1.04336 25.0679 0.960058C23.2395 0.876754 22.6556 0.856934 18 0.856934Z" fill="url(#paint0_radial)"/>
<path fill-rule="evenodd" clip-rule="evenodd" d="M26.406 11.1366C26.406 11.9888 25.7151 12.6795 24.8631 12.6795C24.0111 12.6795 23.3202 11.9888 23.3202 11.1366C23.3202 10.2844 24.0111 9.59376 24.8631 9.59376C25.7153 9.59376 26.406 10.2844 26.406 11.1366ZM18 22.2854C15.6331 22.2854 13.7143 20.3666 13.7143 17.9997C13.7143 15.6328 15.6331 13.7141 18 13.7141C20.3669 13.7141 22.2856 15.6328 22.2856 17.9997C22.2856 20.3666 20.3669 22.2854 18 22.2854ZM18 11.3974C14.3536 11.3974 11.3977 14.3533 11.3977 17.9997C11.3977 21.6461 14.3536 24.6021 18 24.6021C21.6464 24.6021 24.6023 21.6461 24.6023 17.9997C24.6023 14.3533 21.6464 11.3974 18 11.3974ZM18 7.45927C21.4331 7.45927 21.8397 7.47233 23.1953 7.53421C24.4489 7.59146 25.1297 7.80079 25.5827 7.97698C26.1828 8.21021 26.6111 8.48885 27.0611 8.93885C27.5111 9.38865 27.7897 9.81695 28.0229 10.4172C28.1989 10.8702 28.4085 11.5511 28.4657 12.8046C28.5276 14.1605 28.5406 14.5671 28.5406 18.0001C28.5406 21.4332 28.5276 21.8398 28.4657 23.1954C28.4085 24.449 28.1991 25.1298 28.0229 25.5828C27.7897 26.1829 27.5111 26.6112 27.0611 27.0612C26.6113 27.5112 26.183 27.7898 25.5827 28.0231C25.1297 28.1991 24.4489 28.4086 23.1953 28.4658C21.8397 28.5277 21.4331 28.5408 18 28.5408C14.5667 28.5408 14.1601 28.5277 12.8045 28.4658C11.5509 28.4086 10.8701 28.1993 10.4171 28.0231C9.81703 27.7898 9.38872 27.5112 8.93872 27.0612C8.48892 26.6114 8.21009 26.1831 7.97685 25.5828C7.80087 25.1298 7.59134 24.449 7.53408 23.1954C7.47221 21.8396 7.45915 21.433 7.45915 18.0001C7.45915 14.5671 7.47221 14.1605 7.53408 12.8046C7.59134 11.5511 7.80067 10.8702 7.97685 10.4172C8.21009 9.81715 8.48872 9.38885 8.93872 8.93885C9.38852 8.48885 9.81683 8.21021 10.4171 7.97698C10.8701 7.80099 11.5509 7.59146 12.8045 7.53421C14.1603 7.47233 14.5669 7.45927 18 7.45927ZM18 5.14258C14.5083 5.14258 14.0703 5.15744 12.699 5.21992C11.3306 5.2824 10.3958 5.49977 9.57817 5.81758C8.73261 6.14604 8.01562 6.58579 7.30084 7.30057C6.58607 8.01535 6.14631 8.73233 5.81785 9.57789C5.50004 10.3957 5.28267 11.3303 5.2202 12.6988C5.15772 14.0701 5.14285 14.508 5.14285 17.9997C5.14285 21.4914 5.15772 21.9294 5.2202 23.3007C5.28267 24.6692 5.50004 25.6037 5.81785 26.4216C6.14631 27.2671 6.58607 27.9841 7.30084 28.6989C8.01562 29.4137 8.73261 29.8532 9.57817 30.1819C10.396 30.4997 11.3306 30.717 12.699 30.7795C14.0703 30.842 14.5083 30.8569 18 30.8569C21.4917 30.8569 21.9297 30.842 23.301 30.7795C24.6694 30.717 25.604 30.4997 26.4218 30.1819C27.2674 29.8532 27.9844 29.4137 28.6992 28.6989C29.4139 27.9841 29.8535 27.2671 30.1821 26.4216C30.5 25.6037 30.7173 24.6692 30.7798 23.3007C30.8423 21.9294 30.8571 21.4914 30.8571 17.9997C30.8571 14.508 30.8423 14.0701 30.7798 12.6988C30.7173 11.3303 30.5 10.3957 30.1821 9.57789C29.8535 8.73233 29.4139 8.01535 28.6992 7.30057C27.9844 6.58579 27.2674 6.14624 26.4218 5.81758C25.604 5.49977 24.6694 5.2824 23.301 5.21992C21.9297 5.15744 21.4917 5.14258 18 5.14258Z" fill="white"/>
<defs>
<radialGradient id="paint0_radial" cx="0" cy="0" r="1" gradientUnits="userSpaceOnUse" gradientTransform="translate(5.97618 -4.88869) scale(43.8085)">
<stop stop-color="#FFB140"/>
<stop offset="0.2559" stop-color="#FF5445"/>
<stop offset="0.599" stop-color="#FC2B82"/>
<stop offset="1" stop-color="#8E40B7"/>
</radialGradient>
</defs>
</svg>
