<svg width="60" height="60" viewBox="0 0 60 60" fill="none" xmlns="http://www.w3.org/2000/svg">
<circle opacity="0.1" cx="30" cy="30" r="29.5" stroke="#79B741"/>
<circle opacity="0.3" cx="29.75" cy="29.75" r="23.25" stroke="#79B741"/>
<circle cx="30" cy="30" r="18" fill="#79B741"/>
<g clip-path="url(#clip0)">
<path d="M36.7405 29.6863L25.6926 22.067C25.5757 21.9867 25.424 21.9783 25.2991 22.0434C25.1738 22.1093 25.0953 22.2389 25.0953 22.3806V37.619C25.0953 37.7607 25.1738 37.8907 25.2991 37.9566C25.3547 37.9855 25.4157 38 25.4762 38C25.552 38 25.6275 37.9771 25.6926 37.9326L36.7405 30.3133C36.8437 30.2421 36.9051 30.1251 36.9051 29.9998C36.9051 29.8745 36.8434 29.7575 36.7405 29.6863Z" fill="white"/>
</g>
<defs>
<clipPath id="clip0">
<rect width="16" height="16" fill="white" transform="translate(23 22)"/>
</clipPath>
</defs>
</svg>
