<svg width="36" height="36" viewBox="0 0 36 36" fill="none" xmlns="http://www.w3.org/2000/svg">
<path d="M18 35.1426C27.4677 35.1426 35.1429 27.4675 35.1429 17.9998C35.1429 8.53205 27.4677 0.856934 18 0.856934C8.53226 0.856934 0.857143 8.53205 0.857143 17.9998C0.857143 27.4675 8.53226 35.1426 18 35.1426Z" fill="#1E96C8"/>
<path d="M26.1991 10.3821C26.2223 10.3666 26.7173 10.1423 27.1582 10.4362C27.4986 10.6683 27.661 11.1092 27.545 11.5346C26.4698 16.6088 25.3869 21.683 24.3117 26.7573C24.304 26.8192 24.2421 27.3065 23.8012 27.5695C23.5073 27.7474 23.136 27.7706 22.8111 27.6313C22.726 27.5927 22.6409 27.5385 22.5636 27.4844C20.011 25.5661 17.4584 23.6478 14.9058 21.7217L23.8089 13.7159C23.8321 13.6772 23.9327 13.5534 23.894 13.4761C23.8631 13.4142 23.7548 13.391 23.6078 13.4142C23.4686 13.4297 23.3371 13.4838 23.2211 13.5612C19.5624 15.8662 15.9114 18.1713 12.2527 20.4764L7.27902 18.968C7.07018 18.8133 6.77624 18.5658 6.79945 18.2719C6.82265 18.0011 7.10885 17.8155 7.21714 17.7459C8.11442 17.1889 22.6332 11.7202 26.1991 10.3821Z" fill="white"/>
</svg>
