<svg width="36" height="36" viewBox="0 0 36 36" fill="none" xmlns="http://www.w3.org/2000/svg">
<g clip-path="url(#clip0)">
<path d="M34.7999 11.1202C34.7999 11.1202 34.4655 8.59915 33.4377 7.48915C32.1334 6.03415 30.6726 6.02557 30.0027 5.94307C25.2044 5.57129 18.0075 5.57129 18.0075 5.57129C14.0066 5.57129 9.9873 5.63385 5.99737 5.94307C5.32751 6.02557 3.86777 6.03415 2.56236 7.48915C1.53561 8.59915 1.20015 11.1202 1.20015 11.1202C1.20015 11.1202 0.857188 14.0784 0.857188 17.0366V19.8095C0.857188 22.7699 1.20015 25.727 1.20015 25.727C1.20015 25.727 1.53454 28.247 2.56236 29.3549C3.86777 30.8099 5.57938 30.7659 6.34247 30.9181C9.08512 31.1988 18 31.2856 18 31.2856C18 31.2856 25.2044 31.2727 30.0027 30.9052C30.6726 30.8195 32.1334 30.8109 33.4377 29.3559C34.4645 28.2481 34.7999 25.7281 34.7999 25.7281C34.7999 25.7281 35.1429 22.7699 35.1429 19.8106V17.0377C35.1429 14.0784 34.7999 11.1202 34.7999 11.1202Z" fill="#E02F2F"/>
<path d="M13.7183 12V24.8571L24.4359 18.4286L13.7183 12Z" fill="white"/>
</g>
<defs>
<clipPath id="clip0">
<rect width="36" height="36" fill="white"/>
</clipPath>
</defs>
</svg>
